<svg width="46" height="53" viewBox="0 0 46 53" fill="none" xmlns="http://www.w3.org/2000/svg">
<path d="M43.0073 33.3517C44.736 30.1563 45.6366 26.5905 45.6294 22.9703C45.6234 10.7559 35.5508 0.854492 23.1311 0.854492C10.7114 0.854492 0.648407 10.7559 0.654352 22.9703C0.647788 28.1874 2.52541 33.2381 5.95247 37.222L5.97894 37.2545C5.9882 37.2623 5.99614 37.2727 6.00276 37.2805H5.95249L19.3036 51.2135C19.7986 51.7299 20.3956 52.1414 21.058 52.4226C21.7205 52.7039 22.4343 52.8489 23.1557 52.8489C23.8771 52.8489 24.5909 52.7039 25.253 52.4226C25.9152 52.1414 26.5118 51.7299 27.0063 51.2135L40.3451 37.2805H40.2949L40.316 37.2558L40.3187 37.2532C40.4139 37.1413 40.509 37.0294 40.6029 36.9149C41.5199 35.8059 42.3256 34.6122 43.0087 33.3504L43.0073 33.3517ZM23.1513 31.4263C21.0463 31.4263 19.0272 30.604 17.538 29.1401C16.0489 27.6763 15.2117 25.6909 15.2107 23.6208C15.2097 21.5506 16.0449 19.5652 17.5326 18.1014C19.0204 16.6375 21.0387 15.8152 23.1437 15.8152C25.2486 15.8152 27.2678 16.6375 28.7569 18.1014C30.2461 19.5652 31.0832 21.5506 31.0842 23.6208C31.0852 25.6909 30.25 27.6763 28.7623 29.1401C27.2746 30.604 25.2562 31.4263 23.1513 31.4263Z" fill="white"/>
</svg>
