<svg width="36" height="45" viewBox="0 0 36 45" fill="none" xmlns="http://www.w3.org/2000/svg">
<path d="M17.6395 16.2687L14.0226 19.5331C14.497 21.1805 15.1645 22.7652 16.0112 24.2538C16.8924 25.7321 17.9526 27.0946 19.1675 28.3101L23.8509 26.8583C26.4747 26.0444 29.3387 26.8803 31.083 28.9701L33.7497 32.1641C34.8294 33.4463 35.3704 35.1012 35.2583 36.7781C35.1461 38.455 34.3895 40.0223 33.1487 41.1479C28.797 45.1426 22.0977 46.4933 17.0831 42.5293C12.6758 39.0372 8.94696 34.7567 6.08393 29.9028C3.2146 25.0717 1.29479 19.7306 0.428914 14.1702C-0.531777 7.91408 4.02128 2.90746 9.69743 1.20045C13.0821 0.179769 16.6936 1.93077 17.9348 5.19519L19.3989 9.04475C20.3603 11.5789 19.6688 14.4385 17.6395 16.2687Z" fill="white"/>
</svg>
